<?xml version="1.0" encoding="UTF-8" standalone="no"?>
<svg
   xmlns:dc="http://purl.org/dc/elements/1.1/"
   xmlns:cc="http://creativecommons.org/ns#"
   xmlns:rdf="http://www.w3.org/1999/02/22-rdf-syntax-ns#"
   xmlns:svg="http://www.w3.org/2000/svg"
   xmlns="http://www.w3.org/2000/svg"
   id="svg954"
   version="1.1"
   fill="none"
   viewBox="0 0 24 24"
   height="800px"
   width="800px">
  <metadata
     id="metadata960">
    <rdf:RDF>
      <cc:Work
         rdf:about="">
        <dc:format>image/svg+xml</dc:format>
        <dc:type
           rdf:resource="http://purl.org/dc/dcmitype/StillImage" />
        <dc:title></dc:title>
      </cc:Work>
    </rdf:RDF>
  </metadata>
  <defs
     id="defs958">
    <marker
       style="overflow:visible"
       id="marker2126"
       refX="0.0"
       refY="0.0"
       orient="auto">
      <path
         transform="scale(0.8) translate(12.5,0)"
         style="fill-rule:evenodd;stroke:none;stroke-width:1pt;stroke-opacity:1;fill:#c6afe9;fill-opacity:1"
         d="M 0.0,0.0 L 5.0,-5.0 L -12.5,0.0 L 5.0,5.0 L 0.0,0.0 z "
         id="path2124" />
    </marker>
    <marker
       style="overflow:visible"
       id="Arrow1Lstart"
       refX="0.0"
       refY="0.0"
       orient="auto">
      <path
         transform="scale(0.8) translate(12.5,0)"
         style="fill-rule:evenodd;stroke:none;stroke-width:1pt;stroke-opacity:1;fill:#c6afe9;fill-opacity:1"
         d="M 0.0,0.0 L 5.0,-5.0 L -12.5,0.0 L 5.0,5.0 L 0.0,0.0 z "
         id="path1842" />
    </marker>
  </defs>
  <path
     id="rect1653"
     d="M 6.6710895,7.2355654 C 5.1981979,8.7084569 5.1959125,11.3015 6.6660458,12.77165 l 7.01e-5,7.1e-5 1.4816465,1.481647 0.4971935,0.497192 2.4384081,2.495258 c 0.811316,0.830231 1.06423,0.829012 1.87679,0 l 2.39495,-2.495258 0.497193,-0.497192 1.481645,-1.481647 C 18.804078,11.301583 18.801824,8.7084859 17.328842,7.2355679 15.855936,5.7626627 13.470144,5.7603936 12,7.2305279 v 0 C 10.529896,5.7603945 8.1440775,5.7626482 6.6711594,7.2354902 Z"
     style="opacity:1;fill:#ffffff;fill-opacity:1;fill-rule:evenodd;stroke:#ffffff;stroke-width:0.82013667;stroke-linecap:round;stroke-linejoin:round;stroke-miterlimit:4;stroke-dasharray:none;stroke-dashoffset:0;stroke-opacity:1;paint-order:normal" />
</svg>
